<?xml version="1.0" encoding="utf-8"?>
<!-- Generator: Adobe Illustrator 26.0.3, SVG Export Plug-In . SVG Version: 6.00 Build 0)  -->
<svg version="1.1" id="Camada_1" xmlns="http://www.w3.org/2000/svg" xmlns:xlink="http://www.w3.org/1999/xlink" x="0px" y="0px"
	 viewBox="0 0 720 720" style="enable-background:new 0 0 720 720;" xml:space="preserve">
<g>
	<path d="M404.7,31l-162.9,0.2c-21.4,0-41.8,9.2-56,25.1L38.5,221c-17.2,19.3-23.4,46-16.3,70.8L69.7,458
		c9.2,32.3,38.8,54.6,72.4,54.6h187.4L360,360H172.3c-27.9,0-44-31.6-27.7-54.2L404.7,31z"/>
	<path d="M315.3,689l162.9-0.2c21.4,0,41.8-9.2,56-25.1L681.5,499c17.2-19.3,23.4-46,16.3-70.8L650.3,262
		c-9.2-32.3-38.8-54.6-72.4-54.6H390.5L360,360h187.7c27.9,0,44,31.6,27.7,54.2L315.3,689z"/>
</g>
</svg>
