<?xml version="1.0" encoding="utf-8"?>
<!-- Generator: Adobe Illustrator 26.0.3, SVG Export Plug-In . SVG Version: 6.00 Build 0)  -->
<svg version="1.1" id="Camada_1" xmlns="http://www.w3.org/2000/svg" xmlns:xlink="http://www.w3.org/1999/xlink" x="0px" y="0px"
	 viewBox="0 0 1000 400" style="enable-background:new 0 0 1000 400;" xml:space="preserve">
<g>
	<g>
		<path d="M164.6,179v39.4c0,30.7-15.3,46-46,46H31V133h87.6C149.2,133,164.6,148.3,164.6,179z M142.7,179c0-19-9.5-28.5-28.5-28.5
			H52.9v96.3h61.3c19,0,28.5-9.5,28.5-28.5L142.7,179z"/>
		<path d="M326.8,264.4H202V133h122.6l-8.8,17.5h-92v39.5h78.3v17.5h-78.3v39.4h94.2L326.8,264.4z"/>
		<path d="M484.8,227.1c0,24.8-12.4,37.2-37.2,37.2h-92l8.8-17.5h78.8c10.9,0,19.7-8.8,19.7-19.7c0-10.9-8.8-19.7-19.7-19.7h-52.6
			c-24.8,0-37.2-12.4-37.2-37.2c0-24.8,12.4-37.2,37.2-37.2h89.8l-8.8,17.5H395c-10.9,0-19.7,8.8-19.7,19.7s8.8,19.7,19.7,19.7h52.6
			C472.4,189.9,484.8,202.3,484.8,227.1z"/>
		<path d="M597.9,198.7l55.1,65.7l-33-8.8l-40.3-48.2h-38.3v48.2l-21.9,8.8V133l21.9,8.8v48.2h38.3l40.3-48.2l33-8.8L597.9,198.7z"
			/>
		<path d="M808.9,264.4H684.1V133h122.6l-8.8,17.5h-92v39.5h78.3v17.5H706v39.4h94.2L808.9,264.4z"/>
		<path d="M974,264.4l-33-8.7l-40.3-48.2h-38.4v48.2l-21.9,8.7V133h89.8c24.8,0,37.2,12.4,37.2,37.2c0,24.8-12.4,37.2-37.2,37.2
			h-3.8L974,264.4z M925.7,190.4c10.8,0,19.6-8.8,19.6-19.6c0-10.8-8.8-19.6-19.6-19.6h-63.1v39.2H925.7z"/>
	</g>
</g>
</svg>
