<?xml version="1.0" encoding="utf-8"?>
<svg version="1.1" id="Camada_1" xmlns="http://www.w3.org/2000/svg" xmlns:xlink="http://www.w3.org/1999/xlink" x="0px"
	y="0px" viewBox="0 0 1000 400" xml:space="preserve">
	<g>
		<g>
			<path fill="#fff" d="M403.5,186.2v27.8c0,21.6-10.8,32.4-32.4,32.4h-61.7v-92.6h61.7C392.7,153.7,403.5,164.5,403.5,186.2z M388,186.2
			c0-13.4-6.7-20.1-20.1-20.1h-43.2V234H368c13.4,0,20.1-6.7,20.1-20.1L388,186.2z" />
			<path fill="#fff" d="M517.8,246.4h-88v-92.6h86.4l-6.2,12.4h-64.8v27.8h55.2v12.4h-55.2V234h66.4L517.8,246.4z" />
			<path fill="#fff" d="M629.2,220.1c0,17.5-8.7,26.2-26.2,26.2h-64.8l6.2-12.3h55.6c7.7,0,13.9-6.2,13.9-13.9c0-7.7-6.2-13.9-13.9-13.9h-37.1
			c-17.5,0-26.2-8.7-26.2-26.2c0-17.5,8.7-26.2,26.2-26.2h63.3l-6.2,12.4h-54c-7.7,0-13.9,6.2-13.9,13.9c0,7.7,6.2,13.9,13.9,13.9
			h37C620.4,193.9,629.2,202.6,629.2,220.1z" />
			<path fill="#fff"
				d="M708.9,200.1l38.8,46.3l-23.3-6.2l-28.4-34h-27v34l-15.4,6.2v-92.6l15.4,6.2v34h27l28.4-34l23.3-6.2L708.9,200.1z" />
			<path fill="#fff" d="M857.6,246.4h-88v-92.6h86.4l-6.2,12.4h-64.8v27.8h55.2v12.4h-55.2V234h66.4L857.6,246.4z" />
			<path fill="#fff" d="M974,246.4l-23.3-6.2l-28.4-34h-27v34l-15.4,6.2v-92.6h63.3c17.5,0,26.2,8.7,26.2,26.2c0,17.5-8.7,26.2-26.2,26.2h-2.7
			L974,246.4z M940,194.2c7.6,0,13.8-6.2,13.8-13.8s-6.2-13.8-13.8-13.8h-44.5v27.6H940z" />
		</g>
		<g>
			<path fill="#fff" d="M143,100.1l-49.5,0.1c-6.5,0-12.7,2.8-17,7.6l-44.7,50c-5.2,5.8-7.1,14-4.9,21.5l14.4,50.5c2.8,9.8,11.8,16.6,22,16.6
			h56.9l9.3-46.4h-57c-8.5,0-13.4-9.6-8.4-16.5L143,100.1z" />
			<path fill="#fff" d="M115.9,299.9l49.5-0.1c6.5,0,12.7-2.8,17-7.6l44.7-50c5.2-5.8,7.1-14,4.9-21.5l-14.4-50.5c-2.8-9.8-11.8-16.6-22-16.6
			h-56.9l-9.3,46.4h57c8.5,0,13.4,9.6,8.4,16.5L115.9,299.9z" />
		</g>
	</g>
</svg>